<?xml version="1.0" encoding="UTF-8"?>
<svg id="_图层_2" data-name="图层 2" xmlns="http://www.w3.org/2000/svg" viewBox="0 0 48 48">
  <defs>
    <style>
      .cls-1 {
        fill: #febbde;
      }

      .cls-2 {
        fill: none;
        stroke: #222;
        stroke-linecap: round;
        stroke-linejoin: round;
        stroke-width: 3px;
      }
    </style>
  </defs>
  <g id="_图层_2-2" data-name=" 图层 2">
    <g>
      <path class="cls-1" d="M8,0h32c4.42,0,8,3.58,8,8v32c0,4.42-3.58,8-8,8H8c-4.42,0-8-3.58-8-8V8C0,3.58,3.58,0,8,0Z"/>
      <path class="cls-2" d="M30.82,24c0,3.77-3.05,6.82-6.82,6.82s-6.82-3.05-6.82-6.82,3.05-6.82,6.82-6.82,6.82,3.05,6.82,6.82ZM30.82,24v2.56c0,2.35,1.91,4.26,4.26,4.26h0c2.35,0,4.26-1.91,4.26-4.26v-2.56c0-8.48-6.87-15.35-15.35-15.35s-15.35,6.87-15.35,15.35,6.87,15.35,15.35,15.35h6.82"/>
    </g>
  </g>
</svg>