<?xml version="1.0" encoding="UTF-8"?>
<svg id="_图层_2" data-name="图层 2" xmlns="http://www.w3.org/2000/svg" viewBox="0 0 48 48">
  <defs>
    <style>
      .cls-1 {
        fill: #f3f2f1;
      }

      .cls-2 {
        fill: none;
        stroke: #222;
        stroke-linecap: round;
        stroke-linejoin: round;
        stroke-width: 3px;
      }
    </style>
  </defs>
  <g id="_图层_2-2" data-name=" 图层 2">
    <g>
      <path class="cls-1" d="M8,0h32c4.42,0,8,3.58,8,8v32c0,4.42-3.58,8-8,8H8c-4.42,0-8-3.58-8-8V8C0,3.58,3.58,0,8,0Z"/>
      <g>
        <path class="cls-2" d="M33.26,15.51c-.42,0-.77-.34-.77-.77s.34-.77.77-.77"/>
        <path class="cls-2" d="M33.26,15.51c.42,0,.77-.34.77-.77s-.34-.77-.77-.77"/>
        <path class="cls-2" d="M16.28,24c0,4.26,3.46,7.71,7.71,7.71s7.71-3.46,7.71-7.71-3.46-7.71-7.71-7.71-7.71,3.46-7.71,7.71"/>
        <path class="cls-2" d="M30.94,7.79h-13.89c-5.11,0-9.26,4.15-9.26,9.26v13.89c0,5.11,4.15,9.26,9.26,9.26h13.89c5.11,0,9.26-4.15,9.26-9.26v-13.89c0-5.11-4.15-9.26-9.26-9.26Z"/>
      </g>
    </g>
  </g>
</svg>