<?xml version="1.0" encoding="UTF-8"?>
<svg id="_图层_2" data-name="图层 2" xmlns="http://www.w3.org/2000/svg" viewBox="0 0 48 48">
  <defs>
    <style>
      .cls-1 {
        fill: #febbde;
      }

      .cls-2 {
        fill: #222;
      }
    </style>
  </defs>
  <g id="_图层_2-2" data-name=" 图层 2">
    <g>
      <path class="cls-1" d="M8,0h32c4.42,0,8,3.58,8,8v32c0,4.42-3.58,8-8,8H8c-4.42,0-8-3.58-8-8V8C0,3.58,3.58,0,8,0Z"/>
      <path class="cls-2" d="M40.06,27.47v11.88h-6.88v-11.08c0-2.78-1-4.69-3.49-4.69-1.9,0-3.03,1.28-3.53,2.52-.18.45-.23,1.06-.23,1.68v11.57h-6.89s.09-18.77,0-20.71h6.89v2.94l-.04.07h.04v-.06c.92-1.41,2.54-3.43,6.21-3.43,4.53,0,7.92,2.96,7.92,9.33h0ZM11.84,8.65c-2.36,0-3.9,1.55-3.9,3.58s1.5,3.58,3.81,3.58h.04c2.4,0,3.9-1.6,3.9-3.58-.04-2.03-1.49-3.58-3.86-3.58h0ZM8.35,39.35h6.89v-20.71h-6.89s0,20.71,0,20.71Z"/>
    </g>
  </g>
</svg>