<?xml version="1.0" encoding="UTF-8"?>
<svg id="_图层_2" data-name="图层 2" xmlns="http://www.w3.org/2000/svg" viewBox="0 0 51.51 51.51">
  <defs>
    <style>
      .cls-1 {
        fill: none;
        stroke: #222;
        stroke-linecap: round;
        stroke-linejoin: round;
        stroke-width: 3.51px;
      }
    </style>
  </defs>
  <g id="_图层_1-2" data-name="图层 1">
    <g>
      <path class="cls-1" d="M39.47,13.18c-.63,0-1.14-.51-1.14-1.14s.51-1.14,1.14-1.14"/>
      <path class="cls-1" d="M39.47,13.18c.63,0,1.14-.51,1.14-1.14s-.51-1.14-1.14-1.14"/>
      <path class="cls-1" d="M14.33,25.75c0,6.31,5.12,11.43,11.43,11.43s11.43-5.12,11.43-11.43-5.12-11.43-11.43-11.43-11.43,5.12-11.43,11.43"/>
      <path class="cls-1" d="M36.04,1.75H15.47C7.89,1.75,1.75,7.89,1.75,15.47v20.57c0,7.57,6.14,13.71,13.71,13.71h20.57c7.57,0,13.71-6.14,13.71-13.71V15.47c0-7.57-6.14-13.71-13.71-13.71Z"/>
    </g>
  </g>
</svg>