<?xml version="1.0" encoding="UTF-8"?>
<svg id="_图层_2" data-name="图层 2" xmlns="http://www.w3.org/2000/svg" viewBox="0 0 48 48">
  <defs>
    <style>
      .cls-1, .cls-2 {
        fill: none;
      }

      .cls-2 {
        stroke: #222;
        stroke-linecap: round;
        stroke-linejoin: round;
        stroke-width: 2.63px;
      }
    </style>
  </defs>
  <g id="_图层_1-2" data-name="图层 1">
    <g>
      <path class="cls-1" d="M0,0h48v48H0V0Z"/>
      <g>
        <path class="cls-2" d="M34.59,14.57c-.47,0-.86-.38-.86-.86s.38-.86.86-.86"/>
        <path class="cls-2" d="M34.59,14.57c.47,0,.86-.38.86-.86s-.38-.86-.86-.86"/>
        <path class="cls-2" d="M15.73,24c0,4.73,3.84,8.57,8.57,8.57s8.57-3.84,8.57-8.57-3.84-8.57-8.57-8.57-8.57,3.84-8.57,8.57"/>
        <path class="cls-2" d="M32.02,6h-15.43c-5.68,0-10.29,4.61-10.29,10.29v15.43c0,5.68,4.61,10.29,10.29,10.29h15.43c5.68,0,10.29-4.61,10.29-10.29v-15.43c0-5.68-4.61-10.29-10.29-10.29Z"/>
      </g>
    </g>
  </g>
</svg>