<?xml version="1.0" encoding="UTF-8"?>
<svg id="_图层_2" data-name="图层 2" xmlns="http://www.w3.org/2000/svg" viewBox="0 0 48 48">
  <defs>
    <style>
      .cls-1, .cls-2 {
        fill: none;
      }

      .cls-2 {
        stroke: #222;
        stroke-linecap: round;
        stroke-linejoin: round;
        stroke-width: 2px;
      }

      .cls-3 {
        fill: #222;
      }
    </style>
  </defs>
  <g id="_图层_1-2" data-name="图层 1">
    <path class="cls-1" d="M0,0h48v48H0V0Z"/>
    <path class="cls-3" d="M35.66,26.52v8.62h-5v-8.05c0-2.02-.72-3.4-2.53-3.4-1.38,0-2.2.93-2.57,1.83-.13.32-.17.77-.17,1.22v8.4h-5s.07-13.62,0-15.04h5v2.13l-.03.05h.03v-.05c.66-1.03,1.85-2.49,4.51-2.49,3.29,0,5.76,2.15,5.76,6.77h0ZM15.17,12.86c-1.71,0-2.83,1.12-2.83,2.6s1.09,2.6,2.76,2.6h.03c1.74,0,2.83-1.16,2.83-2.6-.03-1.47-1.08-2.6-2.8-2.6h0ZM12.64,35.14h5v-15.04h-5v15.04Z"/>
    <path class="cls-2" d="M31.71,6h-15.43c-5.68,0-10.29,4.61-10.29,10.29v15.43c0,5.68,4.61,10.29,10.29,10.29h15.43c5.68,0,10.29-4.61,10.29-10.29v-15.43c0-5.68-4.61-10.29-10.29-10.29Z"/>
  </g>
</svg>