<?xml version="1.0" encoding="UTF-8"?>
<svg id="_图层_2" data-name="图层 2" xmlns="http://www.w3.org/2000/svg" viewBox="0 0 48 48">
  <defs>
    <style>
      .cls-1 {
        fill: none;
      }

      .cls-2 {
        fill: #565656;
      }
    </style>
  </defs>
  <g id="_图层_1-2" data-name="图层 1">
    <g>
      <path class="cls-1" d="M0,0h48v48H0V0Z"/>
      <path class="cls-2" d="M42,27.89v13.31h-7.71v-12.42c0-3.12-1.12-5.25-3.91-5.25-2.13,0-3.4,1.43-3.96,2.82-.2.5-.26,1.19-.26,1.88v12.96h-7.72s.1-21.03,0-23.21h7.72v3.29l-.05.08h.05v-.07c1.03-1.58,2.85-3.84,6.96-3.84,5.08,0,8.88,3.32,8.88,10.45h0ZM10.37,6.8c-2.64,0-4.37,1.74-4.37,4.01s1.68,4.01,4.27,4.01h.05c2.69,0,4.37-1.79,4.37-4.01-.05-2.28-1.67-4.01-4.32-4.01h0ZM6.46,41.2h7.72v-23.21h-7.72v23.21Z"/>
    </g>
  </g>
</svg>