<?xml version="1.0" encoding="UTF-8"?>
<svg id="_图层_2" data-name="图层 2" xmlns="http://www.w3.org/2000/svg" viewBox="0 0 48 45.87">
  <defs>
    <style>
      .cls-1 {
        fill: #565656;
      }
    </style>
  </defs>
  <g id="_图层_1-2" data-name="图层 1">
    <path class="cls-1" d="M48,28.12v17.75h-10.29v-16.56c0-4.16-1.49-6.99-5.21-6.99-2.84,0-4.54,1.91-5.28,3.76-.27.66-.34,1.58-.34,2.51v17.28h-10.29s.14-28.04,0-30.95h10.29v4.38l-.07.1h.07v-.1c1.37-2.11,3.81-5.12,9.27-5.12,6.77,0,11.85,4.43,11.85,13.93h0ZM5.82,0C2.3,0,0,2.31,0,5.35s2.24,5.35,5.69,5.35h.07c3.59,0,5.82-2.38,5.82-5.35C11.51,2.31,9.35,0,5.82,0h0ZM.61,45.87h10.29V14.92H.61v30.95Z"/>
  </g>
</svg>