<?xml version="1.0" encoding="UTF-8"?>
<svg id="_图层_2" xmlns="http://www.w3.org/2000/svg" xmlns:xlink="http://www.w3.org/1999/xlink" version="1.1" viewBox="0 0 427.5 428.4">
  <!-- Generator: Adobe Illustrator 29.2.0, SVG Export Plug-In . SVG Version: 2.1.0 Build 108)  -->
  <defs>
    <style>
      .st0 {
        fill: url(#_未命名的渐变_13);
      }
    </style>
    <linearGradient id="_未命名的渐变_13" data-name="未命名的渐变 13" x1="89.4" y1="90.3" x2="337.2" y2="338" gradientUnits="userSpaceOnUse">
      <stop offset="0" stop-color="#fff"/>
      <stop offset="1" stop-color="#febbde"/>
    </linearGradient>
  </defs>
  <g id="_图层_1-2">
    <g>
      <path class="st0" d="M275.2,28.4c36.7,36.7,39,84.9,0,123.8-36.7,36.7-84.9,39-123.9,0-36.7-36.7-36.7-87.2,0-123.9,36.7-36.7,84.9-39,123.8,0h0Z"/>
      <path class="st0" d="M151.4,152.2c36.7,36.7,39,84.9,0,123.8-36.7,36.7-84.9,39-123.9,0-36.7-36.7-36.7-87.2,0-123.9,36.7-36.7,84.9-39,123.8,0h0Z"/>
      <path class="st0" d="M399.1,152.2c36.7,36.7,39,84.9,0,123.9-36.7,36.7-84.9,39-123.9,0-36.7-36.7-36.7-87.2,0-123.9s84.9-39,123.9,0h0Z"/>
      <path class="st0" d="M275.2,276.1c36.7,36.7,39,84.9,0,123.9-36.7,36.7-84.9,39-123.9,0-36.7-36.7-36.7-87.2,0-123.9s84.9-39,123.9,0h0Z"/>
    </g>
  </g>
</svg>