<?xml version="1.0" encoding="UTF-8"?>
<svg id="_图层_2" data-name="图层 2" xmlns="http://www.w3.org/2000/svg" viewBox="0 0 48 48">
  <defs>
    <style>
      .cls-1, .cls-2, .cls-3 {
        fill: none;
      }

      .cls-2, .cls-3 {
        stroke: #222;
        stroke-width: 2.63px;
      }

      .cls-3 {
        stroke-linecap: round;
        stroke-linejoin: round;
      }
    </style>
  </defs>
  <g id="_图层_1-2" data-name="图层 1">
    <g>
      <path class="cls-1" d="M0,0h48v48H0V0Z"/>
      <g>
        <path class="cls-3" d="M41.59,24c0-9.83-7.97-17.79-17.79-17.79-9.83,0-17.79,7.97-17.79,17.79s7.97,17.79,17.79,17.79"/>
        <path class="cls-3" d="M25.57,6.29s5.34,7.03,5.34,17.71"/>
        <path class="cls-3" d="M22.01,41.71s-5.34-7.03-5.34-17.71,5.34-17.71,5.34-17.71"/>
        <path class="cls-3" d="M7.12,30.23h16.67"/>
        <path class="cls-3" d="M7.12,17.77h33.35"/>
        <path class="cls-2" d="M41.37,34.53c.88.54.82,1.86-.08,1.96l-4.57.52-2.05,4.11c-.41.82-1.66.42-1.87-.59l-2.23-10.88c-.18-.85.59-1.39,1.33-.93,0,0,9.46,5.82,9.46,5.82Z"/>
      </g>
    </g>
  </g>
</svg>